HIERARCHY
ROOT Hips
{
	OFFSET 53.592300 -27.325912 86.742592
	CHANNELS 6 Xposition Yposition Zposition Xrotation Yrotation Zrotation
	JOINT spine
	{
		OFFSET 0.000000 -0.393702 6.846367
		CHANNELS 3 Xrotation Yrotation Zrotation
		JOINT spine1
		{
			OFFSET 0.000000 -0.000002 9.496208
			CHANNELS 3 Xrotation Yrotation Zrotation
			JOINT spine2
			{
				OFFSET 0.000000 -0.000002 9.099091
				CHANNELS 3 Xrotation Yrotation Zrotation
				JOINT Neck
				{
					OFFSET 0.000000 -1.113783 23.361214
					CHANNELS 3 Xrotation Yrotation Zrotation
					JOINT Head
					{
						OFFSET 0.000000 0.000000 7.058014
						CHANNELS 3 Xrotation Yrotation Zrotation
						End Site
						{
							OFFSET 0.000000 5.634186 17.084396
						}
					}
				}
				JOINT RightShoulder
				{
					OFFSET -3.831360 0.533491 9.826309
					CHANNELS 3 Xrotation Yrotation Zrotation
					JOINT RightArm
					{
						OFFSET 0.000000 -0.000004 12.888115
						CHANNELS 3 Xrotation Yrotation Zrotation
						JOINT RightArmRoll
						{
							OFFSET 0.000000 0.000000 6.506165
							CHANNELS 3 Xrotation Yrotation Zrotation
							JOINT RightForeArm
							{
								OFFSET 0.000000 -0.000004 18.950104
								CHANNELS 3 Xrotation Yrotation Zrotation
								JOINT RightForeArmRoll
								{
									OFFSET 0.000000 0.000000 7.300934
									CHANNELS 3 Xrotation Yrotation Zrotation
									JOINT RightHand
									{
										OFFSET 0.000000 -0.000004 14.651398
										CHANNELS 3 Xrotation Yrotation Zrotation
										End Site
										{
											OFFSET 0.000000 0.000000 0.100006
										}
									}
								}
							}
						}
					}
				}
				JOINT LeftShoulder
				{
					OFFSET 3.831360 0.533491 9.826309
					CHANNELS 3 Xrotation Yrotation Zrotation
					JOINT LeftArm
					{
						OFFSET 0.000000 -0.000004 12.888115
						CHANNELS 3 Xrotation Yrotation Zrotation
						JOINT LeftArmRoll
						{
							OFFSET 0.000000 0.000000 6.506165
							CHANNELS 3 Xrotation Yrotation Zrotation
							JOINT LeftForeArm
							{
								OFFSET 0.000000 -0.000004 18.950104
								CHANNELS 3 Xrotation Yrotation Zrotation
								JOINT LeftForeArmRoll
								{
									OFFSET 0.000000 0.000000 7.300919
									CHANNELS 3 Xrotation Yrotation Zrotation
									JOINT LeftHand
									{
										OFFSET 0.000000 -0.000004 14.651398
										CHANNELS 3 Xrotation Yrotation Zrotation
										End Site
										{
											OFFSET 0.000000 0.000000 0.100006
										}
									}
								}
							}
						}
					}
				}
			}
		}
	}
	JOINT RightUpLeg
	{
		OFFSET -6.068371 0.933477 -1.112778
		CHANNELS 3 Xrotation Yrotation Zrotation
		JOINT RightUpLegRoll
		{
			OFFSET 0.000000 -0.000004 17.179596
			CHANNELS 3 Xrotation Yrotation Zrotation
			JOINT RightLeg
			{
				OFFSET 0.000000 0.000004 -21.274300
				CHANNELS 3 Xrotation Yrotation Zrotation
				JOINT RightLegRoll
				{
					OFFSET 0.000000 -0.000004 21.343903
					CHANNELS 3 Xrotation Yrotation Zrotation
					JOINT RightFoot
					{
						OFFSET 0.000000 -0.000002 17.765198
						CHANNELS 3 Xrotation Yrotation Zrotation
						JOINT RightToeBase
						{
							OFFSET 0.000000 -0.000004 14.850815
							CHANNELS 3 Xrotation Yrotation Zrotation
							End Site
							{
								OFFSET 0.006294 0.829004 7.192123
							}
						}
					}
				}
			}
		}
	}
	JOINT LeftUpLeg
	{
		OFFSET 6.068371 0.933477 -1.112778
		CHANNELS 3 Xrotation Yrotation Zrotation
		JOINT LeftUpLegRoll
		{
			OFFSET 0.000000 -0.000004 17.179703
			CHANNELS 3 Xrotation Yrotation Zrotation
			JOINT LeftLeg
			{
				OFFSET 0.000000 -0.000004 21.274200
				CHANNELS 3 Xrotation Yrotation Zrotation
				JOINT LeftLegRoll
				{
					OFFSET 0.000000 -0.000002 21.541206
					CHANNELS 3 Xrotation Yrotation Zrotation
					JOINT LeftFoot
					{
						OFFSET 0.000000 -0.000004 17.567902
						CHANNELS 3 Xrotation Yrotation Zrotation
						JOINT LeftToeBase
						{
							OFFSET 0.000000 -0.000002 14.850800
							CHANNELS 3 Xrotation Yrotation Zrotation
							End Site
							{
								OFFSET -0.028210 0.829002 7.192123
							}
						}
					}
				}
			}
		}
	}
}
MOTION
Frames: 10
Frame Time: 0.041667
52.529308 4.273191 53.654625 -22.824967 -0.270499 -5.544938 0.658600 -1.558409 4.505452 5.425200 -3.019880 9.065025 7.062595 -2.911738 9.100104 20.715793 4.813179 -11.870812 3.327858 -4.453106 -11.486325 -29.903497 -55.460043 -35.653184 106.805212 -46.616311 80.074536 0.000006 0.000013 -0.000010 31.319580 -20.366910 9.443526 0.000001 0.000006 -2.999992 -5.000206 -7.999251 0.000022 16.237648 72.497923 -16.101616 -61.321179 144.781296 54.367674 0.000002 -0.000003 0.000013 8.157124 26.604700 -2.156336 -0.000001 -0.000009 3.000002 -5.000157 8.000109 -0.000110 -62.874869 -171.279097 3.149515 179.999964 -0.000004 -1.626004 94.166725 1.486487 0.673924 0.000002 0.000001 1.992429 65.780350 8.484934 -1.471585 25.456959 -7.355617 0.000003 -60.938436 166.157343 -7.588651 -0.000020 -0.000003 -0.818758 -88.480449 -1.510701 2.547935 -0.000002 0.000004 -1.994700 68.761236 -7.619030 -0.263366 25.456856 7.355629 0.000008 
52.532703 4.267929 53.653828 -22.820979 -0.276652 -5.544545 0.660716 -1.556138 4.503744 5.430710 -3.014794 9.060158 7.068121 -2.906701 9.095177 20.731588 4.814056 -11.868657 3.312331 -4.453665 -11.483903 -29.895543 -55.461963 -35.643469 106.814043 -46.597545 80.092034 0.000007 0.000012 -0.000006 31.292993 -20.377096 9.439703 0.000001 0.000006 -2.999990 -5.000205 -7.999255 0.000022 16.198567 72.496215 -16.059744 -61.325776 144.789301 54.378677 0.000000 -0.000003 0.000014 8.131498 26.611238 -2.153738 -0.000002 -0.000010 3.000001 -5.000159 8.000110 -0.000107 -62.881262 -171.278495 3.148445 179.999964 -0.000004 -1.627000 94.170994 1.487023 0.674847 0.000002 0.000001 1.993361 65.775494 8.486650 -1.474936 25.456960 -7.355618 0.000003 -60.942465 166.157875 -7.590496 -0.000020 -0.000003 -0.818693 -88.480279 -1.510252 2.553729 -0.000002 0.000004 -1.994670 68.759671 -7.619116 -0.264091 25.456856 7.355630 0.000009 
52.533703 4.269218 53.654026 -22.817191 -0.282237 -5.544064 0.662760 -1.554067 4.502095 5.436188 -3.010118 9.055393 7.073596 -2.902062 9.090364 20.747784 4.815040 -11.866682 3.295224 -4.453781 -11.481627 -29.887422 -55.462762 -35.633623 106.824985 -46.578383 80.112286 0.000004 0.000012 -0.000006 31.265990 -20.387449 9.435839 0.000002 0.000009 -2.999990 -5.000210 -7.999254 0.000021 16.160238 72.494972 -16.018614 -61.330577 144.796486 54.390067 0.000003 -0.000003 0.000015 8.105669 26.617686 -2.151076 -0.000001 -0.000010 3.000001 -5.000159 8.000109 -0.000109 -62.887382 -171.277812 3.147409 179.999964 -0.000005 -1.627998 94.175673 1.487296 0.675775 0.000002 0.000001 1.994351 65.770583 8.488515 -1.478653 25.456960 -7.355617 0.000001 -60.946509 166.157848 -7.591876 -0.000020 -0.000004 -0.818594 -88.480258 -1.509942 2.559529 -0.000003 0.000004 -1.994679 68.758142 -7.619308 -0.264631 25.456858 7.355631 0.000008 
52.533604 4.274298 53.652332 -22.813501 -0.287425 -5.543524 0.664757 -1.552147 4.500506 5.441621 -3.005731 9.050684 7.079039 -2.897721 9.085616 20.764282 4.816081 -11.864756 3.277005 -4.453573 -11.479562 -29.879441 -55.463004 -35.623934 106.834964 -46.559596 80.130973 0.000004 0.000013 -0.000009 31.238703 -20.397957 9.431949 0.000002 0.000008 -2.999990 -5.000206 -7.999249 0.000025 16.122411 72.494077 -15.977973 -61.335208 144.803507 54.401057 0.000002 -0.000003 0.000015 8.079707 26.624135 -2.148383 -0.000000 -0.000010 2.999999 -5.000156 8.000109 -0.000111 -62.893072 -171.277498 3.147435 179.999964 -0.000004 -1.630006 94.180577 1.487231 0.675727 0.000002 0.000001 1.995371 65.765603 8.490495 -1.482641 25.456957 -7.355617 0.000002 -60.950586 166.157247 -7.592800 -0.000020 -0.000004 -0.818473 -88.480367 -1.509772 2.565327 -0.000002 0.000003 -1.994719 68.756618 -7.619540 -0.264981 25.456854 7.355628 0.000008 
52.535103 4.273903 53.651432 -22.809910 -0.292384 -5.542938 0.666737 -1.550316 4.498950 5.447028 -3.001513 9.046028 7.084458 -2.893528 9.080913 20.780985 4.817170 -11.862870 3.258158 -4.453189 -11.477651 -29.871228 -55.462758 -35.614017 106.845995 -46.540619 80.151095 0.000005 0.000014 -0.000009 31.211297 -20.408385 9.427979 0.000000 0.000009 -2.999988 -5.000202 -7.999252 0.000020 16.084713 72.493169 -15.937437 -61.339047 144.810870 54.410687 0.000001 -0.000003 0.000015 8.053669 26.630587 -2.145671 -0.000002 -0.000009 3.000000 -5.000158 8.000110 -0.000109 -62.898707 -171.276651 3.146583 179.999964 -0.000005 -1.631002 94.185536 1.487022 0.676665 0.000002 0.000000 1.996411 65.760645 8.492556 -1.486808 25.456957 -7.355614 0.000003 -60.954664 166.156660 -7.593843 -0.000020 -0.000003 -0.818340 -88.480524 -1.509650 2.571121 -0.000002 0.000004 -1.994771 68.755205 -7.619776 -0.265421 25.456851 7.355629 0.000008 
52.532906 4.273619 53.654129 -22.806220 -0.297287 -5.542358 0.668707 -1.548506 4.497401 5.452441 -2.997325 9.041365 7.089868 -2.889387 9.076203 20.797685 4.818266 -11.861088 3.239143 -4.452762 -11.475654 -29.863114 -55.462386 -35.604253 106.858016 -46.521344 80.172583 0.000007 0.000011 -0.000005 31.183888 -20.418902 9.424073 0.000001 0.000007 -2.999990 -5.000200 -7.999252 0.000022 16.047236 72.492445 -15.897139 -61.343500 144.817742 54.421339 0.000004 -0.000003 0.000015 8.027610 26.637026 -2.142955 -0.000003 -0.000008 3.000000 -5.000157 8.000113 -0.000109 -62.904191 -171.276282 3.146527 179.999964 -0.000004 -1.632000 94.190617 1.486762 0.676595 0.000002 0.000001 1.997460 65.755604 8.494694 -1.491157 25.456960 -7.355617 0.000003 -60.958646 166.156004 -7.594890 -0.000019 -0.000003 -0.818204 -88.480702 -1.509549 2.577017 -0.000003 0.000003 -1.994829 68.753791 -7.620010 -0.265762 25.456856 7.355630 0.000010 
52.534405 4.274940 53.652328 -22.802636 -0.302303 -5.541785 0.670696 -1.546655 4.495824 5.457862 -2.993056 9.036694 7.095301 -2.885165 9.071488 20.814390 4.819345 -11.859200 3.220446 -4.452423 -11.473633 -29.855057 -55.462325 -35.594530 106.867940 -46.502564 80.191236 0.000009 0.000013 -0.000008 31.156482 -20.429417 9.420143 0.000002 0.000006 -2.999992 -5.000207 -7.999252 0.000022 16.009525 72.491516 -15.856592 -61.347352 144.825105 54.431024 0.000000 -0.000003 0.000014 8.001579 26.643465 -2.140235 -0.000002 -0.000010 2.999999 -5.000155 8.000109 -0.000110 -62.909792 -171.275941 3.146558 179.999964 -0.000005 -1.632999 94.195542 1.486615 0.676550 0.000002 0.000000 1.998491 65.750645 8.496759 -1.495324 25.456959 -7.355614 0.000002 -60.962724 166.155416 -7.595916 -0.000020 -0.000003 -0.818072 -88.480852 -1.509399 2.582910 -0.000003 0.000004 -1.994880 68.752363 -7.620207 -0.266197 25.456851 7.355629 0.000008 
52.534306 4.280329 53.653130 -22.798949 -0.307603 -5.541250 0.672712 -1.544695 4.494226 5.463305 -2.988589 9.031973 7.100751 -2.880735 9.066717 20.830788 4.820377 -11.857267 3.202544 -4.452312 -11.471532 -29.846984 -55.462687 -35.584695 106.878855 -46.483481 80.211372 0.000009 0.000011 -0.000004 31.129263 -20.439802 9.416186 0.000001 0.000009 -2.999990 -5.000207 -7.999255 0.000024 15.971501 72.490410 -15.815764 -61.352058 144.832208 54.442147 -0.000000 -0.000004 0.000014 7.975655 26.649897 -2.137529 -0.000002 -0.000011 3.000000 -5.000159 8.000110 -0.000110 -62.915570 -171.275654 3.146559 179.999964 -0.000005 -1.633995 94.200330 1.486579 0.676476 0.000002 0.000001 1.999497 65.745652 8.498697 -1.499220 25.456959 -7.355618 0.000003 -60.966904 166.154870 -7.596719 -0.000020 -0.000004 -0.817958 -88.480914 -1.509180 2.588713 -0.000003 0.000004 -1.994909 68.750847 -7.620440 -0.266646 25.456854 7.355630 0.000009 
52.533199 4.281157 53.651825 -22.795061 -0.313358 -5.540795 0.674769 -1.542564 4.492565 5.468789 -2.983803 9.027166 7.106239 -2.875986 9.061866 20.846883 4.821332 -11.855276 3.185903 -4.452573 -11.469214 -29.838986 -55.463865 -35.574955 106.888629 -46.464517 80.230018 0.000005 0.000014 -0.000009 31.102465 -20.450109 9.412314 0.000004 0.000010 -2.999992 -5.000208 -7.999256 0.000020 15.933011 72.489030 -15.774486 -61.356935 144.839448 54.453728 0.000002 -0.000003 0.000013 7.949862 26.656412 -2.134843 -0.000002 -0.000008 3.000000 -5.000158 8.000110 -0.000110 -62.921786 -171.274998 3.145515 179.999964 -0.000004 -1.636003 94.204899 1.486870 0.677405 0.000002 0.000001 2.000471 65.740837 8.500531 -1.502849 25.456957 -7.355616 0.000003 -60.970831 166.155362 -7.598885 -0.000019 -0.000005 -0.817870 -88.480852 -1.508843 2.594505 -0.000002 0.000003 -1.994910 68.749303 -7.620597 -0.267283 25.456858 7.355627 0.000008 
52.536102 4.280399 53.646633 -22.791076 -0.319739 -5.540439 0.676904 -1.540204 4.490815 5.474329 -2.978560 9.022255 7.111783 -2.870792 9.056897 20.862374 4.822196 -11.853095 3.171003 -4.453336 -11.466732 -29.831083 -55.466095 -35.565280 106.898287 -46.445355 80.248890 0.000007 0.000013 -0.000005 31.075954 -20.460259 9.408429 0.000003 0.000008 -2.999991 -5.000209 -7.999252 0.000024 15.893794 72.487172 -15.732499 -61.361716 144.847590 54.465052 -0.000001 -0.000003 0.000014 7.924299 26.663016 -2.132220 -0.000003 -0.000010 2.999999 -5.000157 8.000106 -0.000109 -62.928520 -171.274001 3.143516 179.999964 -0.000005 -1.637000 94.209189 1.487642 0.678317 0.000002 0.000001 2.001390 65.735947 8.502161 -1.506017 25.456959 -7.355615 0.000002 -60.974854 166.155881 -7.600517 -0.000020 -0.000005 -0.817816 -88.480613 -1.508316 2.600306 -0.000002 0.000004 -1.994860 68.747630 -7.620679 -0.268014 25.456854 7.355630 0.000008 
